<svg width="45" height="44" viewBox="0 0 45 44" xmlns="http://www.w3.org/2000/svg"><title>like</title><path d="M42.77 15.936a6.195 6.195 0 0 0-4-1.49h-9.714v-6.99c0-2.936-.86-5.053-2.56-6.296C23.806-.81 20.1.313 19.943.368c-.462.148-.776.57-.776 1.05v7.816c0 2.55-1.22 4.714-3.632 6.435-1.802 1.286-3.64 1.85-3.835 1.912l-.268.064a2.28 2.28 0 0 0-1.97-1.123h-7.18A2.283 2.283 0 0 0 0 18.8v21.026A2.283 2.283 0 0 0 2.283 42.1h7.2c.7 0 1.34-.322 1.755-.82a6.29 6.29 0 0 0 4.565 1.99h19.204c4.242 0 6.95-2.21 7.43-6.077l2.487-15.365c.342-2.21-.48-4.474-2.154-5.892zM9.537 39.826a.063.063 0 0 1-.064.065h-7.19a.063.063 0 0 1-.065-.062V18.8c0-.038.028-.065.065-.065h7.2c.036 0 .064.027.064.064v21.024h-.01zm33.178-18.348L40.238 36.87c0 .01 0 .03-.01.047-.34 2.753-2.097 4.152-5.23 4.152H15.793c-1.967 0-3.677-1.467-3.982-3.4a1.16 1.16 0 0 0-.043-.193V19.84l.48-.11c.02 0 .028-.01.046-.01.094-.028 2.284-.645 4.493-2.21 3.022-2.135 4.61-5 4.61-8.276V2.302c.963-.157 2.608-.24 3.8.644 1.09.8 1.645 2.32 1.645 4.51v8.084c0 .608.5 1.105 1.11 1.105h10.82c.915 0 1.83.34 2.56.967 1.09.93 1.626 2.412 1.386 3.866z" fill-rule="evenodd"/></svg>