<svg width="45" height="45" viewBox="0 0 45 45" xmlns="http://www.w3.org/2000/svg"><title>telephone</title><path d="M38.4 6.593C34.15 2.343 28.503 0 22.495 0 16.487 0 10.84 2.343 6.59 6.593 2.343 10.843 0 16.49 0 22.5s2.342 11.657 6.59 15.907C10.84 42.657 16.488 45 22.496 45c3.49 0 6.675-.648 9.202-1.86 2.398-1.16 4.138-2.816 4.907-4.66.916-2.21.398-4.517-1.417-6.332l-.065-.065c.028-.037.065-.064.093-.092 1.296-1.36 1.296-3.145-.02-4.46l-3.202-3.204c-.63-.648-1.388-1-2.194-1s-1.574.343-2.222.99l-1.667 1.667a2.916 2.916 0 0 0-.24-.12 5.82 5.82 0 0 1-.544-.295c-1.694-1.074-3.23-2.482-4.702-4.287-.648-.814-1.093-1.51-1.426-2.194.417-.39.805-.787 1.185-1.176.158-.167.325-.325.492-.49 1.36-1.36 1.36-3.12 0-4.483l-1.583-1.583c-.185-.185-.36-.36-.537-.546a30.002 30.002 0 0 0-1.102-1.093c-.63-.62-1.38-.944-2.174-.944-.797 0-1.557.325-2.205.945-.008.01-.008.01-.017.018l-1.99 1.992A4.547 4.547 0 0 0 9.71 14.63c-.138 1.76.37 3.39.77 4.453.953 2.574 2.378 4.963 4.498 7.52 2.574 3.073 5.675 5.508 9.22 7.22 1.362.65 3.185 1.408 5.24 1.547.13.01.26.01.39.01 1.434 0 2.647-.52 3.59-1.547.01-.01.03-.027.038-.037a1.11 1.11 0 0 1 .102-.11l.055.055c1.185 1.188 1.51 2.54.935 3.92-1.064 2.527-5.202 5.12-12.053 5.12-11.183 0-20.273-9.093-20.273-20.278s9.09-20.277 20.273-20.277S42.77 11.315 42.77 22.5c0 1.843-.25 3.657-.732 5.407a1.114 1.114 0 0 0 2.147.593c.537-1.944.815-3.963.815-6a22.4 22.4 0 0 0-6.6-15.907zM31.816 32.19c-.527.562-1.118.81-1.94.81-.083 0-.166 0-.25-.01-1.66-.11-3.23-.762-4.404-1.322-3.242-1.563-6.086-3.777-8.45-6.59-1.95-2.334-3.25-4.493-4.12-6.81-.517-1.396-.71-2.462-.637-3.473a2.298 2.298 0 0 1 .71-1.507l1.987-1.966c.157-.147.397-.322.656-.322.258 0 .48.165.618.312l.028.028c.35.322.683.662 1.034 1.02.185.184.37.377.555.56l1.58 1.572c.488.487.488.846 0 1.333l-.5.496c-.49.49-.942.96-1.44 1.4-.02.01-.028.027-.047.046-.692.69-.452 1.406-.378 1.645.01.027.018.045.027.073.425 1.02 1.016 1.976 1.92 3.115l.01.01c1.626 1.994 3.334 3.538 5.228 4.732.25.154.498.283.738.403.207.1.39.193.548.294.028.018.065.036.102.055.24.12.48.174.72.174.406 0 .784-.165 1.11-.496l1.983-1.975c.157-.156.388-.34.647-.34.24 0 .46.175.6.322.008.01.008.01.017.018l3.196 3.18c.452.45.452.864-.02 1.35l-.008.01c-.212.23-.443.45-.692.69-.37.358-.758.734-1.127 1.166z" fill-rule="evenodd"/></svg>