<svg xmlns:xlink="http://www.w3.org/1999/xlink" xmlns="http://www.w3.org/2000/svg" class="patch-logo__img" width="160"  height="32" ><defs><symbol id="patch-logo" viewBox="0 0 160 32" version="1.1" xmlns="http://www.w3.org/2000/svg" xmlns:xlink="http://www.w3.org/1999/xlink">
    <title>Patch logo horizontal black</title>
    <g stroke="none" stroke-width="1" fill="none" fill-rule="evenodd">
        <g transform="translate(-120.000000, -24.000000)" fill-rule="nonzero" fill="none">
            <g transform="translate(120.000000, 24.000000)" fill="none">
                <g id="Group" fill="#010202">
                    <path d="M36.5665653,30.2884848 L31.5525836,30.2884848 L31.5525836,26.8218182 L32.7975684,25.5951515 C33.1331307,25.8327273 33.5319149,25.9636364 33.9550152,25.9636364 C34.4899696,25.9636364 34.9957447,25.7551515 35.375076,25.3769697 C36.0753799,24.6787879 36.2844985,22.4436364 36.318541,22.0024242 C36.3282675,21.8957576 36.2893617,21.7890909 36.2115502,21.7115152 C36.1337386,21.6339394 36.0267477,21.590303 35.9197568,21.6048485 C35.4772036,21.6387879 33.2352584,21.8424242 32.5349544,22.5454545 C31.8492401,23.2290909 31.7617021,24.2909091 32.2772036,25.0666667 L31.5574468,25.7793939 L31.5574468,21.2606061 L32.6468085,20.1842424 C33.0115502,20.4993939 33.468693,20.6787879 33.9550152,20.6787879 C34.4899696,20.6787879 34.9957447,20.470303 35.375076,20.0921212 C36.0753799,19.3939394 36.2844985,17.1587879 36.318541,16.7175758 C36.3282675,16.6109091 36.2893617,16.5042424 36.2115502,16.4266667 C36.1337386,16.3490909 36.0267477,16.310303 35.9197568,16.32 C35.4772036,16.3539394 33.2352584,16.5575758 32.5349544,17.2557576 C31.8978723,17.8909091 31.7860182,18.8412121 32.1799392,19.5927273 L31.5574468,20.2084848 L31.5574468,16.2909091 L32.8218845,15.04 C33.1525836,15.2678788 33.5465046,15.3890909 33.9550152,15.3890909 C34.4899696,15.3890909 34.9957447,15.1806061 35.375076,14.8024242 C36.0753799,14.1042424 36.2844985,11.8690909 36.318541,11.4278788 C36.3282675,11.3212121 36.2893617,11.2145455 36.2115502,11.1369697 C36.1337386,11.0593939 36.0267477,11.0206061 35.9197568,11.030303 C35.4772036,11.0642424 33.2352584,11.2678788 32.5349544,11.9709091 C31.8395137,12.6642424 31.7617021,13.7357576 32.2966565,14.5163636 L31.5574468,15.2436364 L31.5574468,10.9818182 C32.4863222,10.8072727 33.1963526,9.99272727 33.1963526,9.01333333 C33.1963526,8.02424242 31.7568389,6.29818182 31.4699088,5.96363636 C31.3288754,5.79878788 31.0468085,5.79878788 30.9009119,5.96363636 C30.6139818,6.29818182 29.1744681,8.02424242 29.1744681,9.01333333 C29.1744681,9.99272727 29.8796353,10.8072727 30.8133739,10.9818182 L30.8133739,15.2436364 L30.0741641,14.5163636 C30.6091185,13.7357576 30.531307,12.6642424 29.8358663,11.9709091 C29.1355623,11.2727273 26.893617,11.0642424 26.4510638,11.030303 C26.3440729,11.0206061 26.2370821,11.0593939 26.1592705,11.1369697 C26.081459,11.2145455 26.0425532,11.3212121 26.0522796,11.4278788 C26.0863222,11.8690909 26.2905775,14.1042424 26.9957447,14.8024242 C27.375076,15.1806061 27.8808511,15.3890909 28.4158055,15.3890909 C28.8291793,15.3890909 29.2182371,15.2630303 29.5489362,15.04 L30.8133739,16.2909091 L30.8133739,20.2084848 L30.1908815,19.5927273 C30.5848024,18.8363636 30.4729483,17.8860606 29.8358663,17.2557576 C29.1355623,16.5575758 26.893617,16.3490909 26.4510638,16.32 C26.3440729,16.310303 26.2370821,16.3490909 26.1592705,16.4266667 C26.081459,16.5042424 26.0425532,16.6109091 26.0522796,16.7175758 C26.0863222,17.1587879 26.2905775,19.3939394 26.9957447,20.0921212 C27.375076,20.470303 27.8808511,20.6787879 28.4158055,20.6787879 C28.9021277,20.6787879 29.3592705,20.4993939 29.7240122,20.1842424 L30.8133739,21.2606061 L30.8133739,25.7793939 L30.093617,25.0666667 C30.6091185,24.2909091 30.5215805,23.2290909 29.8358663,22.5454545 C29.1355623,21.8472727 26.893617,21.6387879 26.4510638,21.6048485 C26.3440729,21.5951515 26.2370821,21.6339394 26.1592705,21.7115152 C26.081459,21.7890909 26.0425532,21.8957576 26.0522796,22.0024242 C26.0863222,22.4436364 26.2905775,24.6787879 26.9957447,25.3769697 C27.375076,25.7551515 27.8808511,25.9636364 28.4158055,25.9636364 C28.8340426,25.9636364 29.2328267,25.8327273 29.5732523,25.5951515 L30.8182371,26.8218182 L30.8182371,30.2884848 L18.8547112,30.2884848 L18.8547112,25.9054545 L20.4644377,24.3151515 C20.8778116,24.6254545 21.368997,24.8 21.8942249,24.8 C22.531307,24.8 23.1343465,24.5527273 23.5817629,24.1018182 C24.4425532,23.2436364 24.6905775,20.3345455 24.7148936,20.0048485 C24.7246201,19.8981818 24.6857143,19.7915152 24.6079027,19.7139394 C24.5300912,19.6363636 24.4279635,19.5927273 24.3161094,19.6072727 C23.9854103,19.6315152 21.0674772,19.8787879 20.2066869,20.7369697 C19.7544073,21.1878788 19.506383,21.7842424 19.506383,22.4193939 C19.506383,22.9187879 19.6620061,23.3890909 19.9440729,23.7866667 L18.8547112,24.8581818 L18.8547112,19.0593939 L20.274772,17.6581818 C20.7173252,18.0654545 21.2863222,18.2981818 21.8942249,18.2981818 C22.531307,18.2981818 23.1343465,18.0509091 23.5817629,17.6 C24.4425532,16.7418182 24.6905775,13.8327273 24.7148936,13.5030303 C24.7246201,13.3963636 24.6857143,13.289697 24.6079027,13.2121212 C24.5300912,13.1345455 24.4279635,13.0957576 24.3161094,13.1054545 C23.9854103,13.129697 21.0674772,13.3769697 20.2066869,14.2351515 C19.7544073,14.6860606 19.506383,15.2824242 19.506383,15.9175758 C19.506383,16.329697 19.6182371,16.7175758 19.812766,17.0666667 L18.8547112,18.0121212 L18.8547112,12.9454545 L20.493617,11.3309091 C20.8972644,11.6266667 21.3835866,11.7915152 21.8942249,11.7915152 C22.531307,11.7915152 23.1343465,11.5442424 23.5817629,11.0933333 C24.4425532,10.2351515 24.6905775,7.32606061 24.7148936,6.99636364 C24.7246201,6.88969697 24.6857143,6.7830303 24.6079027,6.70545455 C24.5300912,6.62787879 24.4279635,6.58909091 24.3161094,6.59878788 C23.9854103,6.6230303 21.0674772,6.87030303 20.2066869,7.72848485 C19.7544073,8.17939394 19.506383,8.77575758 19.506383,9.41090909 C19.506383,9.92 19.6717325,10.4 19.9683891,10.8024242 L18.8595745,11.8981818 L18.8595745,6.37575758 C19.9975684,6.19636364 20.8729483,5.2169697 20.8729483,4.03393939 C20.8729483,2.82181818 18.9860182,0.591515152 18.7671733,0.339393939 C18.6893617,0.252121212 18.587234,0.203636364 18.4802432,0.203636364 C18.3732523,0.203636364 18.2662614,0.252121212 18.1981763,0.334545455 C17.9841945,0.586666667 16.0924012,2.8169697 16.0924012,4.02909091 C16.0924012,5.2169697 16.9677812,6.19151515 18.1057751,6.37090909 L18.1057751,11.8933333 L16.9920973,10.7975758 C17.6680851,9.86666667 17.5951368,8.55757576 16.7537994,7.72363636 C15.8930091,6.86545455 12.975076,6.61818182 12.6443769,6.59393939 C12.5325228,6.58424242 12.4303951,6.6230303 12.3525836,6.70060606 C12.274772,6.77818182 12.2358663,6.88484848 12.2455927,6.99151515 C12.2699088,7.32121212 12.5179331,10.230303 13.3787234,11.0884848 C13.831003,11.5393939 14.4291793,11.7866667 15.0662614,11.7866667 C15.5768997,11.7866667 16.0632219,11.6218182 16.4668693,11.3260606 L18.1057751,12.9406061 L18.1057751,18.0024242 L17.1477204,17.0569697 C17.6486322,16.150303 17.5270517,14.9915152 16.7586626,14.2254545 C15.8978723,13.3672727 12.9799392,13.12 12.6492401,13.0957576 C12.537386,13.0860606 12.4352584,13.1248485 12.3574468,13.2024242 C12.2796353,13.28 12.2407295,13.3866667 12.2504559,13.4933333 C12.274772,13.8230303 12.5227964,16.7321212 13.3835866,17.590303 C13.8358663,18.0412121 14.4340426,18.2884848 15.0711246,18.2884848 C15.6790274,18.2884848 16.2480243,18.0606061 16.6905775,17.6484848 L18.1106383,19.049697 L18.1106383,24.8484848 L17.0212766,23.7721212 C17.6778116,22.8412121 17.5902736,21.5515152 16.7586626,20.7224242 C15.8978723,19.8642424 12.9799392,19.6169697 12.6492401,19.5927273 C12.537386,19.5830303 12.4352584,19.6218182 12.3574468,19.6993939 C12.2796353,19.7769697 12.2407295,19.8836364 12.2504559,19.990303 C12.274772,20.32 12.5227964,23.2290909 13.3835866,24.0872727 C13.8358663,24.5381818 14.4340426,24.7854545 15.0711246,24.7854545 C15.5963526,24.7854545 16.087538,24.6109091 16.5009119,24.3006061 L18.1106383,25.8909091 L18.1106383,30.2739394 L11.7787234,30.2739394 C11.5744681,30.2739394 11.4042553,30.4387879 11.4042553,30.6472727 C11.4042553,30.8509091 11.5696049,31.0206061 11.7787234,31.0206061 L36.5665653,31.0206061 C36.7708207,31.0206061 36.9410334,30.8557576 36.9410334,30.6472727 C36.9410334,30.4533333 36.7756839,30.2884848 36.5665653,30.2884848 Z M33.0553191,23.0690909 C33.3762918,22.7490909 34.5677812,22.5018182 35.5258359,22.390303 C35.4139818,23.3406061 35.1659574,24.5333333 34.8449848,24.8533333 C34.3829787,25.3139394 33.6,25.3236364 33.1136778,24.8969697 C33.0990881,24.8678788 33.0844985,24.8387879 33.0601824,24.8145455 C33.0407295,24.7951515 33.0115502,24.7806061 32.987234,24.7660606 C32.5738602,24.2666667 32.5933131,23.529697 33.0553191,23.0690909 Z M33.0553191,17.7793939 C33.3762918,17.4593939 34.5677812,17.2121212 35.5258359,17.1006061 C35.4139818,18.0509091 35.1659574,19.2436364 34.8449848,19.5636364 C34.3927052,20.0145455 33.6291793,20.0339394 33.1428571,19.6315152 C32.9629179,19.4909091 32.8802432,19.3890909 32.7781155,19.1369697 C32.5981763,18.6860606 32.6905775,18.1478788 33.0553191,17.7793939 Z M33.0553191,12.4945455 C33.3762918,12.1745455 34.5677812,11.9272727 35.5258359,11.8157576 C35.4139818,12.7660606 35.1659574,13.9587879 34.8449848,14.2787879 C34.3683891,14.7539394 33.5367781,14.7539394 33.0553191,14.2787879 C32.5641337,13.7842424 32.5641337,12.9842424 33.0553191,12.4945455 Z M27.5112462,14.2787879 C27.1902736,13.9587879 26.9422492,12.7709091 26.8303951,11.8157576 C27.7835866,11.9272727 28.9799392,12.1745455 29.3009119,12.4945455 C29.7920973,12.9842424 29.7920973,13.7842424 29.3009119,14.2787879 C28.8194529,14.7539394 27.9878419,14.7539394 27.5112462,14.2787879 Z M27.5112462,19.5636364 C27.1902736,19.2436364 26.9422492,18.0557576 26.8303951,17.1006061 C27.7835866,17.2121212 28.9799392,17.4593939 29.3009119,17.7793939 C29.6705167,18.1478788 29.7629179,18.6860606 29.5781155,19.1369697 C29.4516717,19.4327273 29.3981763,19.5006061 29.2133739,19.6315152 C28.7270517,20.0339394 27.9586626,20.0145455 27.5112462,19.5636364 Z M27.5112462,24.8484848 C27.1902736,24.5284848 26.9422492,23.3406061 26.8303951,22.3854545 C27.7835866,22.4969697 28.9799392,22.7442424 29.3009119,23.0642424 C29.7677812,23.529697 29.787234,24.2666667 29.3738602,24.7612121 C29.3495441,24.7757576 29.3203647,24.790303 29.3009119,24.809697 C29.2765957,24.8339394 29.2620061,24.8630303 29.2474164,24.8921212 C28.756231,25.3187879 27.9683891,25.3090909 27.5112462,24.8484848 Z M29.9136778,9.01333333 C29.9136778,8.56242424 30.5799392,7.54424242 31.1781155,6.79272727 C31.7762918,7.54424242 32.4425532,8.56242424 32.4425532,9.01333333 C32.4425532,9.70666667 31.8735562,10.2739394 31.1781155,10.2739394 C30.4826748,10.2739394 29.9136778,9.70666667 29.9136778,9.01333333 Z M20.7319149,21.2606061 C21.1744681,20.8193939 22.7744681,20.5139394 23.9270517,20.3878788 C23.8006079,21.5369697 23.4942249,23.1321212 23.0516717,23.5733333 C22.4534954,24.169697 21.4273556,24.1842424 20.8,23.6315152 C20.7805471,23.5927273 20.7610942,23.5587879 20.7319149,23.529697 C20.7027356,23.5006061 20.6735562,23.4860606 20.6395137,23.4666667 C20.3914894,23.1709091 20.2504559,22.8072727 20.2504559,22.4193939 C20.2504559,21.9781818 20.4206687,21.5660606 20.7319149,21.2606061 Z M20.7319149,14.7539394 C21.1744681,14.3127273 22.7744681,14.0072727 23.9270517,13.8812121 C23.8006079,15.030303 23.4942249,16.6254545 23.0516717,17.0666667 C22.4486322,17.6678788 21.4176292,17.6775758 20.7902736,17.1151515 C20.5957447,16.9260606 20.4887538,16.809697 20.3963526,16.5818182 C20.3039514,16.3733333 20.2504559,16.1454545 20.2504559,15.9127273 C20.2504559,15.4763636 20.4206687,15.0642424 20.7319149,14.7539394 Z M20.7319149,8.25212121 C21.1744681,7.81090909 22.7744681,7.50545455 23.9270517,7.37939394 C23.8006079,8.52848485 23.4942249,10.1236364 23.0516717,10.5648485 C22.4291793,11.1854545 21.3495441,11.1854545 20.7319149,10.5648485 C20.4206687,10.2545455 20.2504559,9.84727273 20.2504559,9.40606061 C20.2504559,8.96484848 20.4206687,8.56242424 20.7319149,8.25212121 Z M13.9039514,10.5648485 C13.4613982,10.1236364 13.1550152,8.52848485 13.0285714,7.37939394 C14.181155,7.50545455 15.781155,7.81090909 16.2237082,8.25212121 C16.8656535,8.89212121 16.8656535,9.92969697 16.2237082,10.5648485 C15.606079,11.1854545 14.5264438,11.1854545 13.9039514,10.5648485 Z M13.9039514,17.0715152 C13.4613982,16.630303 13.1550152,15.0351515 13.0285714,13.8860606 C14.181155,14.0121212 15.781155,14.3175758 16.2237082,14.7587879 C16.7197568,15.2533333 16.8267477,15.9854545 16.5544073,16.5866667 C16.4425532,16.8048485 16.3161094,16.9745455 16.1653495,17.12 C15.5428571,17.6824242 14.5069909,17.6678788 13.9039514,17.0715152 Z M13.9039514,23.5733333 C13.4613982,23.1321212 13.1550152,21.5369697 13.0285714,20.3878788 C14.181155,20.5139394 15.781155,20.8193939 16.2237082,21.2606061 C16.8316109,21.8666667 16.8559271,22.8266667 16.3112462,23.4666667 C16.2820669,23.4860606 16.2480243,23.5006061 16.2237082,23.5248485 C16.1945289,23.5539394 16.175076,23.5927273 16.1556231,23.6266667 C15.5282675,24.1842424 14.5069909,24.169697 13.9039514,23.5733333 Z M16.8364742,4.02909091 C16.8364742,3.40848485 17.7507599,2.06545455 18.4802432,1.15878788 C19.2048632,2.06060606 20.1191489,3.40363636 20.1191489,4.02909091 C20.1191489,4.93090909 19.3848024,5.66787879 18.4802432,5.66787879 C17.5756839,5.66787879 16.8364742,4.93090909 16.8364742,4.02909091 Z" id="Shape" fill="#010202"></path>
                    <path d="M5.02857143,0.460606061 C4.88753799,0.334545455 4.67355623,0.334545455 4.5325228,0.460606061 L0.539817629,4 C0.462006079,4.07272727 0.41337386,4.16969697 0.41337386,4.27636364 L0.41337386,14.5939394 C0.41337386,14.7975758 0.578723404,14.9672727 0.787841945,14.9672727 L4.26990881,14.9672727 L4.26990881,16.3684848 L3.36534954,16.3684848 C3.17082067,16.3684848 3.00547112,16.5187879 2.99088146,16.7175758 L2.04255319,31.2048485 C2.03768997,31.3066667 2.07173252,31.4084848 2.14468085,31.4812121 C2.21276596,31.5587879 2.31489362,31.5975758 2.41702128,31.5975758 L6.87659574,31.5975758 C6.9787234,31.5975758 7.08085106,31.5539394 7.14893617,31.4812121 C7.2218845,31.4084848 7.25592705,31.3066667 7.25106383,31.2048485 L6.30273556,16.7175758 C6.2881459,16.5236364 6.12765957,16.3684848 5.92826748,16.3684848 L5.02370821,16.3684848 L5.02370821,14.9672727 L8.7781155,14.9672727 C8.98237082,14.9672727 9.15258359,14.8024242 9.15258359,14.5939394 L9.15258359,4.27636364 C9.15258359,4.16969697 9.10881459,4.06787879 9.02613982,4 L5.02857143,0.460606061 Z M2.81094225,30.8557576 L2.9325228,29.0084848 L6.35136778,29.0084848 L6.47294833,30.8557576 L2.81094225,30.8557576 Z M6.30273556,28.2618182 L2.98115502,28.2618182 L3.7106383,17.110303 L5.57325228,17.110303 L6.30273556,28.2618182 Z M8.39878419,14.2206061 L5.01884498,14.2206061 L5.01884498,13.3672727 L5.78237082,13.3672727 C5.98662614,13.3672727 6.15683891,13.2024242 6.15683891,12.9939394 C6.15683891,12.790303 5.99148936,12.6206061 5.78237082,12.6206061 L3.5112462,12.6206061 C3.30699088,12.6206061 3.13677812,12.7854545 3.13677812,12.9939394 C3.13677812,13.1975758 3.30212766,13.3672727 3.5112462,13.3672727 L4.27477204,13.3672727 L4.27477204,14.2206061 L1.16231003,14.2206061 L1.16231003,4.44606061 L4.78054711,1.24121212 L8.39878419,4.44606061 L8.39878419,14.2206061 Z" id="Shape" fill="#010202"></path>
                </g>
                <g id="Group" transform="translate(48.145897, 5.333333)" fill="#000000">
                    <path d="M17.2790274,2.54060606 C19.0443769,4.00969697 19.9246201,6.27878788 19.9246201,9.33818182 C19.9246201,12.3975758 19.024924,14.6424242 17.2206687,16.0630303 C15.4212766,17.4836364 12.6589666,18.1963636 8.9337386,18.1963636 L4.43525836,18.1963636 L4.43525836,25.609697 L0.1556231,25.609697 L0.1556231,0.334545455 L8.86079027,0.334545455 C12.7075988,0.334545455 15.5136778,1.06666667 17.2790274,2.54060606 Z M14.2492401,12.969697 C15.1051672,12.0678788 15.5379939,10.7393939 15.5379939,8.99393939 C15.5379939,7.24848485 14.9933131,6.01212121 13.9039514,5.28969697 C12.8145897,4.56727273 11.112462,4.20363636 8.78784195,4.20363636 L4.43525836,4.20363636 L4.43525836,14.3272727 L9.40547112,14.3272727 C11.7787234,14.3272727 13.3933131,13.8763636 14.2492401,12.969697 Z" id="Shape"></path>
                    <path d="M25.731307,19.8593939 L23.1927052,25.609697 L18.6212766,25.609697 L29.7920973,0.334545455 L34.3635258,0.334545455 L45.5343465,25.609697 L40.9629179,25.609697 L38.4243161,19.8593939 L25.731307,19.8593939 Z M36.6832827,15.9175758 L32.0778116,5.5030303 L27.4723404,15.9175758 L36.6832827,15.9175758 Z" id="Shape"></path>
                    <polygon id="Path" points="55.1781155 4.23757576 55.1781155 25.609697 50.8984802 25.609697 50.8984802 4.23757576 43.2097264 4.23757576 43.2097264 0.334545455 62.8668693 0.334545455 62.8668693 4.23757576"></polygon>
                    <path d="M76.9069909,21.6387879 C78.3805471,21.6387879 79.649848,21.3963636 80.7148936,20.9163636 C81.7799392,20.4363636 82.8887538,19.6654545 84.0510638,18.6133333 L86.8085106,21.3575758 C84.1240122,24.2424242 80.8656535,25.6872727 77.0334347,25.6872727 C73.2012158,25.6872727 70.0206687,24.489697 67.4917933,22.0993939 C64.9629179,19.7090909 63.7033435,16.6836364 63.7033435,13.0230303 C63.7033435,9.36242424 64.9920973,6.31757576 67.5647416,3.87393939 C70.137386,1.43515152 73.3908815,0.213333333 77.3203647,0.213333333 C81.249848,0.213333333 84.5325228,1.61939394 87.1683891,4.43636364 L84.449848,7.32121212 C83.2389058,6.19636364 82.0960486,5.41090909 81.0212766,4.96484848 C79.9465046,4.51878788 78.6820669,4.29575758 77.2328267,4.29575758 C74.6699088,4.29575758 72.5155015,5.10060606 70.7744681,6.70545455 C69.0334347,8.31030303 68.1629179,10.3660606 68.1629179,12.8630303 C68.1629179,15.36 69.0285714,17.449697 70.7550152,19.1272727 C72.4863222,20.8 74.5337386,21.6387879 76.9069909,21.6387879 Z" id="Path"></path>
                    <polygon id="Path" points="90.5775076 25.609697 90.5775076 0.334545455 94.8571429 0.334545455 94.8571429 11.2921212 107.443161 11.2921212 107.443161 0.334545455 111.722796 0.334545455 111.722796 25.609697 107.443161 25.609697 107.443161 15.2678788 94.8571429 15.2678788 94.8571429 25.609697"></polygon>
                </g>
            </g>
        </g>
    </g>
  </symbol></defs>
              <use xlink:href="#patch-logo"></use>
            </svg>