<svg width="45" height="31" viewBox="0 0 45 31" xmlns="http://www.w3.org/2000/svg"><title>truck</title><path d="M42.55 7.12c-1.5-1.624-3.63-2.51-5.998-2.51h-6.175V1.132c0-.623-.51-1.133-1.13-1.133H1.13C.51 0 0 .51 0 1.13v24.923c0 .624.51 1.134 1.13 1.134h4.51c.368 2.095 2.187 3.69 4.384 3.69 2.197 0 4.016-1.595 4.384-3.69h17.32c.367 2.095 2.187 3.69 4.383 3.69s4.018-1.595 4.385-3.69h3.376c.62 0 1.13-.51 1.13-1.135v-11.71c-.01-2.994-.85-5.497-2.45-7.225zM2.262 2.268h25.85v22.664H14.21a4.457 4.457 0 0 0-4.186-2.955 4.457 4.457 0 0 0-4.186 2.956H2.263V2.267zm7.76 26.35a2.19 2.19 0 0 1 0-4.383 2.19 2.19 0 0 1 0 4.382zm26.086 0a2.19 2.19 0 0 1 0-4.383 2.19 2.19 0 0 1 0 4.382zm6.618-3.694h-2.433a4.457 4.457 0 0 0-4.186-2.956 4.457 4.457 0 0 0-4.187 2.956h-1.536V6.874h6.175c3.81 0 6.173 2.863 6.173 7.47v10.58h-.01z" fill-rule="evenodd"/></svg>