<svg width="45" height="51" viewBox="0 0 45 51" xmlns="http://www.w3.org/2000/svg"><title>shopping-bag-7</title><path d="M43.78 36.973h-1.814v-2.886c0-3.563-2.9-6.47-6.48-6.47a6.474 6.474 0 0 0-6.477 6.47v2.886h-1.817c-.677 0-1.23.553-1.23 1.23v10.675c0 .676.553 1.228 1.23 1.228H43.77c.676 0 1.23-.552 1.23-1.228V38.202a1.218 1.218 0 0 0-1.22-1.23zm-12.31-2.886a4.022 4.022 0 0 1 4.017-4.013 4.022 4.022 0 0 1 4.02 4.013v2.886H31.48v-2.886h-.01zM42.55 47.65H28.435v-8.22H42.55v8.22zM27.03 16.972c.677 0 1.23-.553 1.23-1.23V11.68h4.552L33.9 23.902a1.23 1.23 0 0 0 1.33 1.115 1.228 1.228 0 0 0 1.118-1.33l-1.19-13.338a1.22 1.22 0 0 0-1.23-1.12H28.25C28.21 4.136 24.048 0 18.933 0S9.656 4.135 9.615 9.233h-5.67c-.634 0-1.167.48-1.23 1.116L0 40.962v.113c0 3.44 3.167 6.244 7.052 6.244h15.49c.675 0 1.23-.552 1.23-1.227 0-.676-.555-1.23-1.23-1.23H7.05c-2.51 0-4.56-1.667-4.592-3.735l2.614-29.45h4.55v4.063c0 .678.555 1.23 1.23 1.23.678 0 1.23-.552 1.23-1.23v-4.06H25.8v4.064c0 .676.553 1.23 1.23 1.23zM18.944 2.446c3.762 0 6.817 3.04 6.858 6.777H12.086c.04-3.736 3.096-6.777 6.858-6.777z" fill-rule="evenodd"/></svg>